<svg xmlns="http://www.w3.org/2000/svg" viewBox="0 0 180 40" fill="none">
  <rect width="40" height="40" rx="10" fill="#D9A299"/>
  <path d="M10 16c0-3.3 2.7-6 6-6h6c3.3 0 6 2.7 6 6v1.5h2.25c2.07 0 3.75 1.68 3.75 3.75S32.32 25 30.25 25H28v3c0 3.3-2.7 6-6 6h-6c-3.3 0-6-2.7-6-6V16z" fill="white"/>
  <path d="M13 32c0 0 3 3 9 3s9-3 9-3" stroke="white" stroke-width="2" stroke-linecap="round"/>
  <text x="48" y="17" font-family="Outfit, sans-serif" font-weight="700" font-size="18" fill="#3A312C">Cafe</text>
  <text x="86" y="17" font-family="Outfit, sans-serif" font-weight="700" font-size="18" fill="#D9A299">Flow</text>
  <text x="48" y="32" font-family="Inter, sans-serif" font-weight="400" font-size="10" fill="#9B8E87">Cafe Management System</text>
</svg>
